<?xml version="1.0" encoding="UTF-8"?>
<svg width="100" height="20" viewBox="0 0 100 20" fill="none" xmlns="http://www.w3.org/2000/svg">
  <!-- Stars -->
  <g fill="#00B67A">
    <path d="M10 0l3.09 6.26L20 7.27l-5 4.87 1.18 6.88L10 15.77l-6.18 3.25L5 12.14 0 7.27l6.91-1.01L10 0z"/>
    <path d="M30 0l3.09 6.26L40 7.27l-5 4.87 1.18 6.88L30 15.77l-6.18 3.25L25 12.14 20 7.27l6.91-1.01L30 0z"/>
    <path d="M50 0l3.09 6.26L60 7.27l-5 4.87 1.18 6.88L50 15.77l-6.18 3.25L45 12.14 40 7.27l6.91-1.01L50 0z"/>
    <path d="M70 0l3.09 6.26L80 7.27l-5 4.87 1.18 6.88L70 15.77l-6.18 3.25L65 12.14 60 7.27l6.91-1.01L70 0z"/>
    <path d="M90 0l3.09 6.26L100 7.27l-5 4.87 1.18 6.88L90 15.77l-6.18 3.25L85 12.14 80 7.27l6.91-1.01L90 0z"/>
  </g>
</svg> 