<svg width="137" height="137" viewBox="0 0 137 137" fill="none" xmlns="http://www.w3.org/2000/svg">
<rect width="136.215" height="136.215" rx="40" fill="url(#paint0_linear_44_30)"/>
<path d="M72.9376 103.104C72.4755 108.768 64.1817 108.768 63.7196 103.104L61.6863 78.1807C61.5007 75.9051 59.6821 74.1056 57.4047 73.9439L34.8243 72.3414C29.095 71.9348 29.095 63.5226 34.8243 63.116L42.3401 62.5826C53.2835 61.8059 62.0222 53.1589 62.9143 42.2244L63.7196 32.3538C64.1817 26.6894 72.4755 26.6894 72.9376 32.3538L74.9709 57.2768C75.1565 59.5523 76.9751 61.3518 79.2525 61.5135L101.833 63.116C107.562 63.5226 107.562 71.9348 101.833 72.3414L94.317 72.8748C83.3737 73.6515 74.6349 82.2985 73.7429 93.233L72.9376 103.104Z" fill="white"/>
<defs>
<linearGradient id="paint0_linear_44_30" x1="68.1077" y1="0" x2="102.5" y2="179" gradientUnits="userSpaceOnUse">
<stop stop-color="#1B56FD"/>
<stop offset="1" stop-color="#121A32"/>
</linearGradient>
</defs>
</svg>
