<svg width="771" height="211" viewBox="0 0 771 211" fill="none" xmlns="http://www.w3.org/2000/svg">
<g clip-path="url(#clip0_44_33)">
<path d="M116.528 52.75C118.598 52.75 120.048 54.8 119.358 56.75L81.5084 163.75C81.0884 164.95 79.9484 165.75 78.6784 165.75H58.9484C57.6684 165.75 56.5384 164.94 56.1184 163.74L33.6484 99.49H57.4284L66.2484 124.88C67.1784 127.57 70.9884 127.56 71.9184 124.88L96.0984 54.78C96.5184 53.57 97.6584 52.76 98.9384 52.76H116.538L116.528 52.75ZM133.648 52.75C144.698 52.75 153.648 61.7 153.648 72.75V162.46C153.648 164.12 152.308 165.46 150.648 165.46H132.768C131.108 165.46 129.768 164.12 129.768 162.46V55.75C129.768 54.09 131.108 52.75 132.768 52.75H133.648ZM311.828 52.51C321.338 52.51 329.698 54.06 336.898 57.17C344.158 60.27 349.548 65.36 353.048 72.43C354.968 76.19 356.118 80.06 356.518 84.02C356.918 87.92 357.108 92.18 357.108 96.8V162.46C357.108 164.12 355.768 165.46 354.108 165.46H339.198C337.538 165.46 336.198 164.12 336.198 162.46V148.09C332.198 153.31 327.708 157.32 322.728 160.11C316.318 163.68 308.298 165.46 298.648 165.46C290.918 165.46 284.378 164.01 279.028 161.1C276.278 159.57 273.868 157.79 271.798 155.75C269.048 153.05 265.448 151.3 261.628 150.81C259.078 150.48 256.498 150.62 254.018 151.19C251.128 151.86 248.528 153.39 246.278 155.32C245.908 155.63 245.538 155.94 245.148 156.24C237.348 162.38 226.548 165.45 212.748 165.45C198.948 165.45 188.808 162.48 180.548 156.53C173.648 151.56 169.008 144.91 166.628 136.58C165.858 133.88 167.698 131.12 170.478 130.69L187.138 128.12C188.658 127.88 190.088 128.8 190.608 130.25C192.078 134.34 194.598 137.65 198.178 140.19C202.468 143.23 207.888 144.75 214.428 144.75C220.178 144.75 224.598 143.63 227.708 141.38C230.878 139.07 232.468 135.93 232.468 131.97C232.468 129.53 231.878 127.58 230.688 126.12C229.568 124.6 227.058 123.15 223.158 121.76C219.258 120.37 213.278 118.62 205.228 116.51C196.248 114.13 189.108 111.59 183.828 108.88C178.538 106.1 174.748 102.84 172.428 99.07C170.108 95.3 168.958 90.75 168.958 85.4C168.958 78.73 170.708 72.92 174.208 67.96C177.708 63.01 182.598 59.21 188.868 56.56C195.138 53.85 202.538 52.5 211.068 52.5C219.598 52.5 226.758 53.79 233.158 56.36C239.628 58.94 244.848 62.6 248.818 67.36C252.168 71.38 254.428 75.99 255.608 81.18C255.968 82.76 254.888 84.32 253.288 84.61L234.868 87.91C233.228 88.2 231.648 87.2 231.168 85.61C230.198 82.38 228.318 79.73 225.528 77.67C222.028 75.03 217.338 73.54 211.458 73.21C205.848 72.88 201.318 73.74 197.888 75.79C194.458 77.77 192.738 80.58 192.738 84.21C192.738 86.26 193.428 88.01 194.818 89.46C196.208 90.91 198.978 92.37 203.138 93.82C207.368 95.27 213.638 97.06 221.968 99.17C230.488 101.35 237.288 103.86 242.378 106.7C247.528 109.47 251.228 112.81 253.478 116.71C254.118 117.79 255.198 118.52 256.428 118.75C258.748 119.18 261.158 119 263.408 118.2C265.268 117.54 266.798 116.2 267.888 114.56C269.358 112.35 271.168 110.36 273.298 108.58C276.868 105.54 281.488 103.06 287.168 101.15C291.458 99.76 296.478 98.51 302.228 97.39C308.038 96.27 314.318 95.24 321.048 94.32C325.158 93.72 329.388 93.1 333.718 92.45C333.298 86.84 331.678 82.57 328.878 79.66C325.508 76.16 319.828 74.41 311.838 74.41C307.018 74.41 302.358 75.53 297.868 77.78C294.178 79.63 291.398 82.57 289.538 86.61C288.848 88.1 287.198 88.98 285.628 88.49L269.468 83.42C267.898 82.93 267.038 81.23 267.598 79.68C270.408 71.95 275.118 65.63 281.728 60.74C289.188 55.26 299.228 52.52 311.848 52.52L311.828 52.51ZM333.378 112.03C329.248 112.69 325.528 113.29 322.228 113.84C317.078 114.7 312.648 115.52 308.948 116.32C305.248 117.05 301.978 117.87 299.138 118.8C296.368 119.79 294.018 120.95 292.098 122.27C290.178 123.59 288.698 125.11 287.638 126.83C286.648 128.55 286.148 130.56 286.148 132.87C286.148 135.51 286.808 137.86 288.128 139.91C289.448 141.89 291.368 143.48 293.878 144.67C296.458 145.86 299.628 146.45 303.388 146.45C308.808 146.45 313.428 145.49 317.258 143.58C321.088 141.66 324.128 139.32 326.378 136.54C328.688 133.77 330.238 131.16 331.038 128.71C332.298 125.67 332.988 122.2 333.118 118.31C333.238 115.95 333.318 113.86 333.368 112.04L333.378 112.03Z" fill="url(#paint0_linear_44_33)"/>
<path d="M42.4114 74.9989C41.9514 80.6589 33.6514 80.6589 33.1914 74.9989L31.1614 50.0789C30.9714 47.8089 29.1614 46.0089 26.8814 45.8389L4.30141 44.2389C-1.42859 43.8289 -1.42859 35.4189 4.30141 35.0089L11.8214 34.4789C22.7614 33.6989 31.5014 25.0589 32.3914 14.1189L33.2014 4.24891C33.6614 -1.41109 41.9614 -1.41109 42.4214 4.24891L44.4514 29.1689C44.6314 31.4489 46.4514 33.2489 48.7314 33.4089L71.3114 35.0089C77.0414 35.4189 77.0414 43.8289 71.3114 44.2389L63.7914 44.7689C52.8514 45.5489 44.1114 54.1889 43.2214 65.1289L42.4114 74.9989Z" fill="#1B56FD"/>
<path d="M526.471 52.7717C535.981 52.7717 544.341 54.3217 551.541 57.4317C558.811 60.5317 564.191 65.6217 567.691 72.6917C569.611 76.4517 570.761 80.3217 571.161 84.2817C571.561 88.1817 571.751 92.4417 571.751 97.0617L571.801 162.752C571.801 164.412 570.461 165.752 568.801 165.752H553.891C552.241 165.752 550.891 164.412 550.891 162.762L550.861 148.332C546.851 153.562 542.361 157.582 537.371 160.382C530.961 163.952 522.941 165.732 513.291 165.732C505.561 165.732 499.021 164.282 493.671 161.372C489.491 159.052 486.091 156.142 483.491 152.652C483.091 152.112 482.611 151.622 482.071 151.232C475.001 146.162 465.831 145.872 458.601 149.942C457.411 150.612 456.381 151.512 455.411 152.482C453.261 154.642 450.901 156.582 448.351 158.312C441.021 163.262 432.431 165.742 422.591 165.742C412.151 165.742 403.401 163.262 396.331 158.312C395.891 158.002 395.461 157.692 395.041 157.372V207.332C395.041 208.992 393.701 210.332 392.041 210.332H373.961C372.301 210.332 370.961 208.992 370.961 207.332V56.7417C370.961 55.0817 372.301 53.7417 373.961 53.7417H389.061C390.721 53.7417 392.061 55.0817 392.061 56.7417V63.3917C393.311 62.2517 394.631 61.1917 396.021 60.2017C402.961 55.2517 411.511 52.7717 421.681 52.7717C431.851 52.7717 440.541 55.2517 447.941 60.2017C455.401 65.0917 461.181 71.7917 465.281 80.3117C468.761 87.4917 470.761 95.5217 471.281 104.422C471.541 108.862 475.101 112.572 479.551 112.742C481.351 112.812 483.211 112.332 484.881 111.182L485.151 110.992L486.391 110.072L487.091 109.562C487.361 109.322 487.631 109.082 487.911 108.852C489.251 107.702 490.751 106.642 492.391 105.652L492.681 105.442V105.492C495.331 103.932 498.361 102.572 501.781 101.422C506.071 100.032 511.091 98.7817 516.841 97.6617C522.651 96.5417 528.931 95.5117 535.671 94.5917C539.781 93.9917 544.011 93.3617 548.341 92.7217C547.921 87.1117 546.301 82.8417 543.501 79.9317C540.131 76.4317 534.451 74.6817 526.461 74.6817C521.641 74.6817 516.981 75.8017 512.491 78.0517C508.001 80.3017 504.861 84.1617 503.081 89.6417L481.281 82.8017C483.921 73.7517 488.941 66.4817 496.341 61.0017C503.801 55.5217 513.841 52.7817 526.461 52.7817L526.471 52.7717ZM627.271 52.7717C635.591 52.7717 642.961 54.0617 649.371 56.6317C655.841 59.2117 661.061 62.8717 665.021 67.6317C668.981 72.3917 671.431 77.9717 672.351 84.3717L647.981 88.7317C647.391 84.1717 645.311 80.5717 641.741 77.9317C638.241 75.2917 633.551 73.8017 627.671 73.4717C622.061 73.1417 617.531 74.0017 614.101 76.0517C610.671 78.0317 608.951 80.8417 608.951 84.4717C608.951 86.5217 609.641 88.2717 611.031 89.7217C612.421 91.1717 615.191 92.6317 619.351 94.0817C623.581 95.5317 629.851 97.3217 638.181 99.4317C646.701 101.612 653.501 104.122 658.591 106.962C663.741 109.732 667.441 113.072 669.691 116.972C672.001 120.872 673.161 125.592 673.161 131.142C673.161 141.912 669.231 150.362 661.371 156.502C653.581 162.642 642.781 165.712 628.971 165.712C615.161 165.712 605.031 162.742 596.771 156.792C588.511 150.852 583.491 142.492 581.711 131.722L606.081 127.962C607.341 133.242 610.111 137.412 614.401 140.442C618.691 143.482 624.111 145.002 630.651 145.002C636.401 145.002 640.821 143.882 643.931 141.632C647.101 139.322 648.691 136.182 648.691 132.222C648.691 129.782 648.091 127.832 646.911 126.372C645.791 124.852 643.281 123.402 639.381 122.012C635.481 120.622 629.501 118.872 621.451 116.762C612.471 114.382 605.331 111.842 600.051 109.132C594.771 106.362 590.971 103.092 588.661 99.3217C586.351 95.5517 585.191 91.0017 585.191 85.6517C585.191 78.9817 586.941 73.1717 590.441 68.2117C593.941 63.2617 598.831 59.4617 605.101 56.8217C611.381 54.1117 618.771 52.7617 627.291 52.7617L627.271 52.7717ZM724.571 52.7717C732.891 52.7717 740.261 54.0617 746.671 56.6317C753.141 59.2117 758.361 62.8717 762.321 67.6317C766.281 72.3917 768.731 77.9717 769.651 84.3717L745.281 88.7317C744.691 84.1717 742.611 80.5717 739.041 77.9317C735.541 75.2917 730.851 73.8017 724.971 73.4717C719.361 73.1417 714.831 74.0017 711.401 76.0517C707.971 78.0317 706.251 80.8417 706.251 84.4717C706.251 86.5217 706.941 88.2717 708.331 89.7217C709.721 91.1717 712.491 92.6317 716.651 94.0817C720.881 95.5317 727.151 97.3217 735.481 99.4317C744.001 101.612 750.811 104.122 755.891 106.962C761.041 109.732 764.741 113.072 766.991 116.972C769.301 120.872 770.461 125.592 770.461 131.142C770.461 141.912 766.531 150.362 758.671 156.502C750.881 162.642 740.081 165.712 726.271 165.712C712.461 165.712 702.321 162.742 694.071 156.792C685.811 150.852 680.791 142.492 679.011 131.722L703.381 127.962C704.641 133.242 707.411 137.412 711.701 140.442C715.991 143.482 721.411 145.002 727.951 145.002C733.701 145.002 738.121 143.882 741.231 141.632C744.401 139.322 745.991 136.182 745.991 132.222C745.991 129.782 745.401 127.832 744.211 126.372C743.091 124.852 740.581 123.402 736.681 122.012C732.781 120.622 726.801 118.872 718.751 116.762C709.771 114.382 702.631 111.842 697.351 109.132C692.071 106.362 688.271 103.092 685.961 99.3217C683.651 95.5617 682.491 91.0017 682.491 85.6517C682.491 78.9817 684.241 73.1717 687.741 68.2117C691.241 63.2617 696.131 59.4617 702.401 56.8217C708.671 54.1117 716.071 52.7617 724.591 52.7617L724.571 52.7717ZM548.021 112.292C543.891 112.952 540.171 113.552 536.871 114.102C531.721 114.962 527.291 115.782 523.591 116.582C519.891 117.312 516.621 118.132 513.781 119.062C511.011 120.052 508.661 121.212 506.751 122.532C504.831 123.852 503.351 125.372 502.291 127.092C501.301 128.812 500.801 130.822 500.801 133.132C500.801 135.772 501.461 138.122 502.781 140.172C504.101 142.152 506.021 143.742 508.531 144.932C511.111 146.122 514.281 146.712 518.041 146.712C523.461 146.712 528.081 145.752 531.911 143.842C535.741 141.932 538.781 139.582 541.031 136.802C543.341 134.032 544.891 131.422 545.691 128.972C546.951 125.932 547.641 122.462 547.771 118.572C547.891 116.212 547.971 114.122 548.021 112.302V112.292ZM418.141 74.1717C412.061 74.1717 407.111 75.6617 403.281 78.6317C399.451 81.5417 396.611 85.6317 394.761 90.9217C392.981 96.1417 392.081 102.252 392.081 109.252C392.081 116.252 392.971 122.302 394.761 127.582C396.611 132.862 399.481 136.992 403.381 139.962C407.341 142.872 412.531 144.322 418.941 144.322C425.351 144.322 430.271 142.772 434.301 139.662C438.331 136.552 441.301 132.362 443.221 127.082C445.201 121.732 446.191 115.792 446.191 109.252C446.191 102.712 445.201 96.9017 443.221 91.6117C441.241 86.2617 438.171 82.0317 434.011 78.9317C429.851 75.7617 424.561 74.1717 418.161 74.1717H418.141Z" fill="black"/>
</g>
<defs>
<linearGradient id="paint0_linear_44_33" x1="109.768" y1="89.98" x2="353.768" y2="148.48" gradientUnits="userSpaceOnUse">
<stop stop-color="#1B56FD"/>
<stop offset="1" stop-color="#121A32"/>
</linearGradient>
<clipPath id="clip0_44_33">
<rect width="770.45" height="210.31" fill="white"/>
</clipPath>
</defs>
</svg>
